<?xml version="1.0" encoding="UTF-8"?>
<!DOCTYPE svg PUBLIC "-//W3C//DTD SVG 1.1//EN" "http://www.w3.org/Graphics/SVG/1.1/DTD/svg11.dtd">
<!-- Creator: CorelDRAW 2018 (64 Bit Versão de avaliação) -->
<svg xmlns="http://www.w3.org/2000/svg" xml:space="preserve" width="1000px" height="433px" version="1.1" shape-rendering="geometricPrecision" text-rendering="geometricPrecision" image-rendering="optimizeQuality" fill-rule="evenodd" clip-rule="evenodd"
viewBox="0 0 1341.55 580.49"
 xmlns:xlink="http://www.w3.org/1999/xlink">
 <g id="Camada_x0020_1">
  <metadata id="CorelCorpID_0Corel-Layer"/>
  <g id="_2774054621600">
   <g>
    <path fill="white" fill-rule="nonzero" d="M385.64 512.86c28.58,0 52.61,-8.93 72.18,-26.78 18.4,-16.83 27.4,-39.21 27.08,-67.24l0 -281.57c0,-28.18 13.7,-42.28 41.1,-42.28l0 -9.15 -141.06 0 0 9.15c27.48,0 41.25,14.1 41.25,42.28l0 321.03c0,23.71 -9.47,37.57 -28.41,41.48 -11.35,1.88 -19.26,0.87 -23.88,-2.97 -1.25,-0.86 -5.4,-7.52 -12.6,-19.96 -3.99,-6.89 -7.99,-11.67 -11.9,-14.41 -4.15,-2.89 -9,-4.61 -14.48,-5.08 -5.79,0 -10.96,1.72 -15.34,5.08 -4.62,3.84 -6.89,8.61 -6.89,14.41 0,8.77 6.02,16.59 18.08,23.64 14.09,8.3 32.33,12.37 54.87,12.37z"/>
    <path fill="white" fill-rule="nonzero" d="M54.64 66.83l0 10.94c33.36,0 50.09,16.73 50.09,50.18l0 276.25c0,34.3 -16.73,51.4 -50.09,51.4l0 9.63 111.96 0 0 -9.06c-33.18,-0.38 -49.72,-17.67 -49.53,-51.97l0 -294.1 159.9 354.57 19.99 0 80.21 -195.32 -10.42 -5.3 -47.64 116.88 -127.56 -287.56c-4.02,-9.06 -6.26,-18.03 -6.64,-26.82l-130.27 0.28z"/>
    <path fill="white" fill-rule="nonzero" d="M563.47 178.46l0 5.76c17.57,0 26.38,8.81 26.38,26.43l0 145.49c0,18.06 -8.81,27.07 -26.38,27.07l0 5.07 58.97 0 0 -4.78c-17.48,-0.2 -26.19,-9.3 -26.09,-27.36l0 -154.89 84.21 186.73 10.54 0 76.68 -186.73 0 154.89c0,17.57 -8.86,26.43 -26.68,26.53l0 5.61 89.28 0 0 -5.61c-17.62,0 -26.38,-8.86 -26.38,-26.53l0 -145.49c0,-17.62 8.76,-26.43 26.38,-26.43l0 -5.76 -60.14 -0.15 -67.48 165.57 -67.18 -151.44c-2.12,-4.78 -3.3,-9.5 -3.5,-14.13l-68.61 0.15zm335.43 60.44c-17.97,0.2 -32.14,4.48 -42.43,12.84 -6.25,5.07 -9.11,10.29 -8.61,15.71 0.54,3.74 2.21,6.64 4.87,8.66 3.2,2.11 6.35,2.75 9.55,2.02 2.95,-0.6 5.51,-2.07 7.63,-4.48 2.31,-2.42 4.28,-5.61 5.9,-9.65 3.15,-7.92 5.27,-12.31 6.35,-13.29 3.35,-3.15 8.96,-4.77 16.74,-4.77 19.09,0 28.79,6.25 28.98,18.75 0.25,16.44 -18.21,31.2 -55.37,44.3 -22.29,7.67 -33.46,21.5 -33.46,41.49 0,12.4 4.08,22.29 12.25,29.58 8.37,7.18 18.75,11.07 31.16,11.51 11.12,0.1 20.67,-2.06 28.54,-6.49 8.17,-4.58 14.13,-9.95 17.87,-16 1.18,14.32 11.47,21.51 30.86,21.51 10.29,0 20.82,-3.59 31.6,-10.83l-2.32 -4.48c-7.67,5.02 -14.27,6.94 -19.78,5.76 -4.78,-1.43 -7.19,-6.59 -7.19,-15.55l0 -72.4c0.1,-12.85 -1.87,-23.23 -5.9,-31.11 -7.68,-15.4 -26.78,-23.08 -57.24,-23.08zm28.98 52.02l0 37.36c0,14.62 -2.65,26.67 -7.97,36.22 -5.07,9.4 -12.4,14.13 -22.05,14.13 -7.87,0.1 -13.88,-2.9 -18.01,-8.96 -3.94,-6.05 -6.06,-13.04 -6.35,-20.92 -0.1,-7.97 1.52,-15.06 4.92,-21.31 3.35,-6.35 8.61,-11.22 15.7,-14.57 17.13,-8.56 28.35,-15.89 33.76,-21.95zm113.65 156.02c17.96,0 33.07,-5.61 45.38,-16.83 11.57,-10.58 17.23,-24.66 17.03,-42.28l0 -177.04c0,-17.71 8.61,-26.57 25.84,-26.57l0 -5.76 -88.69 0 0 5.76c17.27,0 25.94,8.86 25.94,26.57l0 201.85c0,14.91 -5.96,23.62 -17.87,26.08 -7.14,1.19 -12.11,0.55 -15.01,-1.87 -0.79,-0.54 -3.4,-4.72 -7.93,-12.55 -2.51,-4.33 -5.02,-7.33 -7.48,-9.05 -2.61,-1.82 -5.66,-2.91 -9.1,-3.2 -3.65,0 -6.89,1.08 -9.65,3.2 -2.9,2.41 -4.33,5.41 -4.33,9.05 0,5.52 3.79,10.44 11.37,14.87 8.86,5.21 20.32,7.77 34.5,7.77zm146.03 -55.51c17.52,-0.1 31.75,-6.55 42.67,-19.45 0.49,10.29 1.97,16.79 4.48,19.45l50.89 -8.76 0 -5.07c-13.53,2.31 -20.32,-5.02 -20.32,-22.05l0 -112.62 -55.08 0.15 0 4.87c13.49,0.3 20.18,10.54 20.18,30.72l-0.15 68.36c0.1,8.66 -2.46,16.14 -7.77,22.49 -5.47,6.45 -12.16,9.65 -20.04,9.65 -8.56,0 -15.45,-3.15 -20.77,-9.5 -5.26,-6.54 -7.92,-14.07 -7.92,-22.64l0 -104.1 -54.09 0 0 4.88c13.29,0.29 19.93,10.53 19.93,30.76l0 63.69c0.1,15.89 4.33,28.15 12.8,36.76 8.86,8.57 20.57,12.7 35.19,12.41z"/>
    <path fill="white" fill-rule="nonzero" d="M733.34 474.11l0 1.07c3.28,-0.04 4.91,1.59 4.89,4.93l0 27.17c0,3.16 -1.63,4.79 -4.89,4.86l0 1.07 33.76 0 0.67 -11.15 -0.97 -0.08c-0.38,6.79 -4.67,10.19 -12.9,10.19 -5.87,0 -8.81,-2.2 -8.81,-6.56l0 -12.82 4.97 0c3.81,0 5.72,1.99 5.72,5.97l1.05 0 0 -13.04 -1.05 0c0,3.91 -1.91,5.86 -5.72,5.86l-4.97 0 0 -16.29 9.81 0c5.83,0 8.94,2.77 9.32,8.3l1.05 -0.15 -0.59 -9.33 -31.34 0zm36.04 0.03l0 1.04c2.3,0 4.13,1.65 5.52,4.93l14.23 33.1 1.81 0 12.55 -33.1c1.23,-3.28 3.19,-4.93 5.88,-4.93l0 -1.04 -9.89 0 0 1.04c3.06,0 3.97,1.65 2.71,4.93l-9.43 24.55 -10.37 -24.55c-1.37,-3.28 -0.3,-4.93 3.17,-4.93l0 -1.04 -16.18 0zm40.26 -0.03l0 1.07c3.28,-0.04 4.91,1.59 4.89,4.93l0 27.17c0,3.16 -1.63,4.79 -4.89,4.86l0 1.07 33.76 0 0.67 -11.15 -0.98 -0.08c-0.37,6.79 -4.67,10.19 -12.89,10.19 -5.87,0 -8.82,-2.2 -8.82,-6.56l0 -12.82 4.97 0c3.82,0 5.73,1.99 5.73,5.97l1.04 0 0 -13.04 -1.04 0c0,3.91 -1.91,5.86 -5.73,5.86l-4.97 0 0 -16.29 9.82 0c5.83,0 8.94,2.77 9.32,8.3l1.04 -0.15 -0.59 -9.33 -31.33 0zm36.04 0l0 1.07c3.19,0 4.79,1.65 4.81,4.93l0 27.11c-0.02,3.3 -1.62,4.95 -4.81,4.95l0 1.04 10.96 0 0 -0.99c-3.26,0 -4.88,-1.67 -4.86,-5l0 -28.84 25.9 34.83 2.08 0 0 -33.1c0,-3.28 1.61,-4.91 4.83,-4.87l0 -1.13 -10.99 0 0 1.07c3.28,0 4.92,1.65 4.92,4.93l0 21.09c-8.29,-11.02 -14.24,-19.18 -17.82,-24.5 -0.89,-1.12 -1.34,-1.98 -1.34,-2.59l-13.68 0zm41.11 0l-0.59 9.33 1.05 0.11c0.38,-5.52 3.27,-8.28 8.68,-8.28l6.26 0 0 32.01c0,3.24 -1.64,4.86 -4.91,4.86l0 1.07 16.65 0 0 -1.07c-3.27,0 -4.91,-1.62 -4.91,-4.86l0 -32.01 6.26 0c5.41,0 8.3,2.76 8.68,8.28l1.04 -0.06 -0.58 -9.38 -37.63 0zm60.76 -0.67c-4.08,0.02 -7.74,0.96 -10.96,2.85 -3.23,1.88 -5.71,4.38 -7.45,7.5 -1.68,3.06 -2.52,6.51 -2.52,10.34 0,5.55 1.94,10.24 5.83,14.06 3.87,3.83 8.66,5.75 14.38,5.75 3.72,0 7.19,-0.9 10.4,-2.69 3.17,-1.75 5.68,-4.22 7.55,-7.39 1.84,-3.13 2.77,-6.63 2.77,-10.51 0,-6 -1.77,-10.81 -5.27,-14.42 -3.55,-3.66 -8.46,-5.49 -14.73,-5.49zm-0.16 1.5c3.87,0 6.92,1.7 9.17,5.09 2.2,3.33 3.3,7.78 3.3,13.38 0,3.58 -0.6,6.82 -1.77,9.72 -1.2,2.96 -2.79,5.26 -4.76,6.88 -2.03,1.65 -4.17,2.48 -6.45,2.48 -3.48,0 -6.42,-1.77 -8.84,-5.32 -2.46,-3.59 -3.68,-7.95 -3.68,-13.09 0,-3.51 0.53,-6.7 1.61,-9.57 1.08,-2.88 2.61,-5.19 4.59,-6.93 2.01,-1.75 4.28,-2.64 6.83,-2.64zm35.1 -1.39c-3.84,0 -6.97,1.06 -9.4,3.17 -2.12,1.99 -3.18,4.49 -3.18,7.5 0.04,4.23 2.78,7.72 8.22,10.47 0.94,0.49 2.35,1.1 4.25,1.84 1.9,0.71 3.52,1.45 4.87,2.2 1.36,0.79 2.34,1.57 2.95,2.34 0.68,0.92 1.08,1.94 1.19,3.03 0.1,1.38 -0.04,2.57 -0.44,3.57 -0.41,1.19 -1.14,2.16 -2.2,2.91 -1.67,1.2 -3.82,1.74 -6.47,1.64 -3.34,-0.13 -6.08,-1.25 -8.23,-3.36 -1.83,-1.83 -3.14,-4.37 -3.93,-7.64l-0.96 0 0 11.99 0.96 0c0.08,-1.16 0.35,-1.98 0.84,-2.45 0.48,-0.46 1.02,-0.6 1.59,-0.41 0.59,0.18 1.36,0.56 2.33,1.12 2.53,1.43 5.03,2.2 7.5,2.31 4.28,0.21 7.75,-0.91 10.4,-3.36 2.54,-2.38 3.91,-5.28 4.08,-8.68 0.11,-2.46 -0.32,-4.49 -1.28,-6.1 -0.97,-1.52 -2.41,-2.85 -4.3,-3.98 -1.3,-0.75 -3.68,-1.77 -7.18,-3.07 -3.6,-1.3 -5.88,-2.44 -6.82,-3.41 -0.77,-0.75 -1.26,-1.6 -1.45,-2.58 -0.26,-1.14 -0.22,-2.24 0.1,-3.3 0.27,-1.11 0.82,-1.99 1.64,-2.63 1.34,-1.15 3.07,-1.74 5.18,-1.78 3,-0.12 5.41,0.92 7.23,3.12 1.41,1.67 2.47,4.03 3.2,7.09l0.99 -0.1 -0.82 -10.89 -1.06 0c-0.03,1.61 -1.3,1.86 -3.81,0.75 -2,-0.87 -4,-1.31 -5.99,-1.31zm57.88 0c-3.58,0.09 -6.77,1.19 -9.57,3.3 -1.57,1.19 -2.65,2.64 -3.24,4.39 -0.57,1.73 -0.71,3.38 -0.39,4.94 0.31,1.56 0.94,2.87 1.89,3.94l0.61 0.73c-0.14,0.06 -0.61,0.25 -1.42,0.57 -3.42,1.39 -5.85,3.59 -7.29,6.59 -1.44,3 -1.54,6.04 -0.29,9.1 0.59,1.45 1.5,2.68 2.72,3.7 1.22,1.01 2.57,1.71 4.05,2.09 1.49,0.39 3.09,0.62 4.8,0.7 1.72,0.08 3.36,-0.09 4.94,-0.53 3.17,-0.67 5.99,-2.03 8.46,-4.08 1.07,1.08 2.24,1.99 3.5,2.75 1.23,0.73 2.56,1.26 4,1.59 1.45,0.33 3.11,0.38 4.97,0.12 1,-0.14 2.15,-0.39 3.46,-0.75l-0.08 -1.13c-1.24,-0.27 -2.45,-0.66 -3.64,-1.19 -1.19,-0.53 -2.22,-1.19 -3.07,-1.97 -0.86,-0.79 -1.43,-1.36 -1.71,-1.7 -0.28,-0.34 -0.88,-0.99 -1.81,-1.96 1.07,-0.77 2.04,-1.22 2.89,-1.34 0.76,-0.09 1.39,0.1 1.88,0.58 0.33,0.29 0.57,0.62 0.74,0.99l0.37 0.92c0.14,0.36 0.34,0.64 0.59,0.86 0.4,0.36 0.88,0.54 1.45,0.54 0.5,0 0.98,-0.2 1.43,-0.59 0.53,-0.51 0.76,-1.11 0.67,-1.83 -0.09,-0.73 -0.44,-1.35 -1.05,-1.85 -0.86,-0.72 -1.82,-1.15 -2.87,-1.32 -1.19,-0.15 -2.34,-0.02 -3.47,0.38 -1.04,0.35 -2.15,0.98 -3.33,1.85l-13.38 -15.18 0.48 -0.19c3.15,-1 5.66,-2.47 7.53,-4.41 1.87,-1.93 2.54,-4.07 2.01,-6.42 -0.29,-1.36 -1.04,-2.41 -2.25,-3.14 -1.21,-0.74 -2.73,-1.09 -4.58,-1.05zm-3.52 1.96l0.45 0c1.32,0.09 2.42,0.57 3.3,1.45 0.89,0.88 1.41,2.06 1.57,3.55 0.06,0.72 -0.03,1.47 -0.25,2.27 -0.22,0.8 -0.74,1.67 -1.53,2.6 -0.78,0.95 -1.81,1.68 -3.09,2.22l-0.85 0.38c-4.45,-4.89 -5.69,-8.47 -3.74,-10.72 0.99,-1.17 2.36,-1.75 4.14,-1.75zm-6.15 16.5l14.05 16.12c-1.58,1.39 -3.97,2.15 -7.17,2.29 -2.24,0.05 -4.32,-0.41 -6.25,-1.37 -1.92,-0.97 -3.34,-2.45 -4.24,-4.44 -0.48,-1.04 -0.75,-2.29 -0.8,-3.73 -0.06,-1.45 0.25,-3.02 0.9,-4.7 0.66,-1.69 1.7,-3.01 3.16,-3.95 0.06,-0.04 0.17,-0.11 0.35,-0.22zm54.7 -17.9l0 1.07c3.28,0.06 4.91,1.7 4.89,4.93l0 27.17c0,3.29 -1.63,4.91 -4.89,4.86l0 1.07 16.66 0 0 -0.94c-3.27,0.11 -4.91,-1.55 -4.91,-4.99l0 -14.49 4.97 0c3.76,0 5.67,2.42 5.72,7.25l1.05 0 0 -15.61 -1.05 0c-0.05,4.77 -1.96,7.15 -5.72,7.15l-4.97 0 0 -16.29 8.63 0c5.83,0 8.94,2.77 9.32,8.3l1.05 -0.15 -0.59 -9.33 -30.16 0zm32.36 0l0 1.07c3.27,-0.04 4.9,1.59 4.89,4.93l0 27.17c0,3.16 -1.64,4.79 -4.89,4.86l0 1.07 33.75 0 0.67 -11.15 -0.97 -0.08c-0.38,6.79 -4.67,10.19 -12.9,10.19 -5.87,0 -8.81,-2.2 -8.81,-6.56l0 -12.82 4.97 0c3.81,0 5.72,1.99 5.72,5.97l1.05 0 0 -13.04 -1.05 0c0,3.91 -1.91,5.86 -5.72,5.86l-4.97 0 0 -16.29 9.81 0c5.84,0 8.94,2.77 9.32,8.3l1.05 -0.15 -0.59 -9.33 -31.33 0zm51.78 -0.56c-3.83,0 -6.97,1.06 -9.4,3.17 -2.12,1.99 -3.17,4.49 -3.17,7.5 0.04,4.23 2.78,7.72 8.22,10.47 0.93,0.49 2.35,1.1 4.24,1.84 1.9,0.71 3.53,1.45 4.87,2.2 1.36,0.79 2.34,1.57 2.96,2.34 0.68,0.92 1.07,1.94 1.18,3.03 0.1,1.38 -0.03,2.57 -0.43,3.57 -0.41,1.19 -1.15,2.16 -2.2,2.91 -1.67,1.2 -3.83,1.74 -6.48,1.64 -3.34,-0.13 -6.08,-1.25 -8.22,-3.36 -1.83,-1.83 -3.14,-4.37 -3.93,-7.64l-0.96 0 0 11.99 0.96 0c0.07,-1.16 0.35,-1.98 0.83,-2.45 0.49,-0.46 1.02,-0.6 1.6,-0.41 0.59,0.18 1.36,0.56 2.33,1.12 2.52,1.43 5.03,2.2 7.49,2.31 4.29,0.21 7.76,-0.91 10.41,-3.36 2.54,-2.38 3.9,-5.28 4.08,-8.68 0.11,-2.46 -0.32,-4.49 -1.29,-6.1 -0.97,-1.52 -2.4,-2.85 -4.3,-3.98 -1.29,-0.75 -3.68,-1.77 -7.17,-3.07 -3.61,-1.3 -5.88,-2.44 -6.83,-3.41 -0.77,-0.75 -1.25,-1.6 -1.45,-2.58 -0.25,-1.14 -0.22,-2.24 0.11,-3.3 0.26,-1.11 0.81,-1.99 1.64,-2.63 1.34,-1.15 3.07,-1.74 5.18,-1.78 3,-0.12 5.4,0.92 7.23,3.12 1.4,1.67 2.47,4.03 3.2,7.09l0.99 -0.1 -0.83 -10.89 -1.05 0c-0.04,1.61 -1.3,1.86 -3.82,0.75 -2,-0.87 -4,-1.31 -5.99,-1.31zm16.74 0.56l-0.58 9.33 1.04 0.11c0.38,-5.52 3.28,-8.28 8.68,-8.28l6.27 0 0 32.01c0,3.24 -1.65,4.86 -4.92,4.86l0 1.07 16.66 0 0 -1.07c-3.28,0 -4.92,-1.62 -4.92,-4.86l0 -32.01 6.26 0c5.42,0 8.31,2.76 8.68,8.28l1.05 -0.06 -0.59 -9.38 -37.63 0zm51.71 0l-12.81 33.7c-1.11,2.87 -3.04,4.27 -5.78,4.22l0 1.18 9.91 0 0 -1.18c-3.04,0 -4.01,-1.4 -2.88,-4.22l2.91 -7.58 13.84 0 3.07 7.58c1.14,2.85 0.19,4.26 -2.86,4.22l0 1.18 16.07 0 0 -1.18c-2.57,-0.07 -4.45,-1.48 -5.64,-4.22l-14 -33.7 -1.83 0zm-1.91 8.55c3.95,9.81 6.16,15.3 6.64,16.45l-12.92 0c0.28,-0.74 2.37,-6.22 6.28,-16.45zm36.45 -9.11c-3.84,0 -6.98,1.06 -9.41,3.17 -2.12,1.99 -3.17,4.49 -3.17,7.5 0.04,4.23 2.78,7.72 8.22,10.47 0.93,0.49 2.35,1.1 4.24,1.84 1.9,0.71 3.53,1.45 4.88,2.2 1.35,0.79 2.33,1.57 2.95,2.34 0.68,0.92 1.07,1.94 1.18,3.03 0.1,1.38 -0.03,2.57 -0.43,3.57 -0.41,1.19 -1.15,2.16 -2.2,2.91 -1.67,1.2 -3.82,1.74 -6.48,1.64 -3.33,-0.13 -6.08,-1.25 -8.22,-3.36 -1.83,-1.83 -3.14,-4.37 -3.93,-7.64l-0.96 0 0 11.99 0.96 0c0.07,-1.16 0.35,-1.98 0.84,-2.45 0.48,-0.46 1.01,-0.6 1.59,-0.41 0.59,0.18 1.36,0.56 2.33,1.12 2.52,1.43 5.03,2.2 7.49,2.31 4.29,0.21 7.76,-0.91 10.41,-3.36 2.54,-2.38 3.9,-5.28 4.08,-8.68 0.11,-2.46 -0.32,-4.49 -1.29,-6.1 -0.97,-1.52 -2.4,-2.85 -4.3,-3.98 -1.29,-0.75 -3.68,-1.77 -7.17,-3.07 -3.61,-1.3 -5.88,-2.44 -6.82,-3.41 -0.78,-0.75 -1.26,-1.6 -1.45,-2.58 -0.26,-1.14 -0.22,-2.24 0.1,-3.3 0.26,-1.11 0.81,-1.99 1.64,-2.63 1.34,-1.15 3.07,-1.74 5.18,-1.78 3,-0.12 5.4,0.92 7.23,3.12 1.4,1.67 2.47,4.03 3.2,7.09l0.99 -0.1 -0.82 -10.89 -1.06 0c-0.04,1.61 -1.3,1.86 -3.82,0.75 -1.99,-0.87 -3.99,-1.31 -5.98,-1.31z"/>
    <path fill="white" fill-rule="nonzero" d="M563.47 106.54l0 1.07c3.28,-0.05 4.91,1.59 4.89,4.92l0 27.17c0,3.17 -1.63,4.79 -4.89,4.87l0 1.07 33.76 0 0.67 -11.15 -0.97 -0.09c-0.38,6.8 -4.67,10.19 -12.9,10.19 -5.87,0 -8.82,-2.19 -8.82,-6.56l0 -12.82 4.98 0c3.81,0 5.72,1.99 5.72,5.97l1.04 0 0 -13.03 -1.04 0c0,3.91 -1.91,5.86 -5.72,5.86l-4.98 0 0 -16.29 9.82 0c5.83,0 8.94,2.77 9.32,8.3l1.04 -0.16 -0.58 -9.32 -31.34 0zm51.79 -0.56c-3.83,0 -6.97,1.05 -9.4,3.16 -2.12,1.99 -3.17,4.5 -3.17,7.5 0.03,4.23 2.78,7.73 8.21,10.48 0.94,0.49 2.35,1.1 4.25,1.83 1.9,0.72 3.52,1.45 4.87,2.21 1.36,0.78 2.34,1.56 2.96,2.33 0.67,0.93 1.07,1.95 1.18,3.04 0.1,1.38 -0.04,2.57 -0.43,3.57 -0.41,1.18 -1.15,2.15 -2.2,2.91 -1.67,1.2 -3.83,1.74 -6.48,1.64 -3.34,-0.13 -6.08,-1.25 -8.23,-3.37 -1.82,-1.82 -3.13,-4.36 -3.92,-7.63l-0.97 0 0 11.99 0.97 0c0.07,-1.17 0.35,-1.98 0.83,-2.45 0.49,-0.46 1.02,-0.61 1.6,-0.41 0.58,0.18 1.36,0.56 2.33,1.12 2.52,1.43 5.02,2.2 7.49,2.31 4.29,0.21 7.75,-0.91 10.4,-3.37 2.54,-2.37 3.91,-5.27 4.09,-8.68 0.11,-2.45 -0.33,-4.48 -1.29,-6.1 -0.97,-1.52 -2.4,-2.85 -4.3,-3.98 -1.29,-0.75 -3.68,-1.77 -7.17,-3.06 -3.61,-1.3 -5.88,-2.44 -6.83,-3.41 -0.77,-0.76 -1.25,-1.61 -1.45,-2.58 -0.25,-1.15 -0.22,-2.25 0.1,-3.3 0.27,-1.11 0.82,-1.99 1.65,-2.64 1.33,-1.14 3.07,-1.74 5.18,-1.77 3,-0.12 5.4,0.91 7.23,3.11 1.4,1.67 2.46,4.04 3.2,7.09l0.99 -0.1 -0.83 -10.88 -1.05 0c-0.04,1.61 -1.31,1.86 -3.82,0.75 -2,-0.87 -4,-1.31 -5.99,-1.31zm14.82 0.56l0 1.07c3.23,-0.08 4.86,1.55 4.86,4.92l0 27.12c0.02,3.27 -1.61,4.92 -4.86,4.92l0 1.07 16.58 0 0 -1.07c-3.27,0 -4.89,-1.65 -4.87,-4.92l0 -10.81 9.48 0c3.18,0 5.88,-1.09 8.12,-3.26 2.24,-2.18 3.36,-4.8 3.36,-7.86 0,-3.1 -1.12,-5.74 -3.36,-7.92 -2.24,-2.17 -4.94,-3.26 -8.12,-3.26l-21.19 0zm11.71 1.26l4.51 0c2.59,0 4.77,0.95 6.56,2.83 1.83,1.93 2.74,4.27 2.74,7.03 0,2.8 -0.92,5.16 -2.74,7.08 -1.83,1.93 -4.01,2.89 -6.56,2.89l-4.51 0 0 -19.83zm32.3 -1.26l-12.82 33.7c-1.11,2.87 -3.04,4.27 -5.78,4.22l0 1.18 9.92 0 0 -1.18c-3.05,0 -4.01,-1.41 -2.88,-4.22l2.9 -7.58 13.85 0 3.06 7.58c1.15,2.85 0.19,4.25 -2.85,4.22l0 1.18 16.07 0 0 -1.18c-2.58,-0.08 -4.46,-1.48 -5.64,-4.22l-14 -33.7 -1.83 0zm-1.91 8.55c3.94,9.81 6.15,15.29 6.64,16.44l-12.93 0c0.29,-0.73 2.38,-6.22 6.29,-16.44zm46.25 -9.11c-4.18,0 -7.91,0.93 -11.2,2.81 -3.31,1.88 -5.8,4.36 -7.51,7.42 -1.69,3.1 -2.55,6.52 -2.55,10.27 0,3.6 0.9,6.92 2.69,9.97 1.83,3.1 4.28,5.49 7.37,7.17 3.18,1.74 6.97,2.61 11.36,2.61 7.35,0 12.29,-2.95 14.83,-8.84l-1.01 -0.3c-2.64,5.13 -7.13,7.69 -13.47,7.69 -9.28,0 -13.92,-6.1 -13.92,-18.3 0,-5.21 1.21,-9.65 3.63,-13.3 2.52,-3.82 5.72,-5.74 9.59,-5.75 6.92,0 11.25,3.54 13.01,10.61l1.07 -0.11 -0.69 -11.42 -1.08 0c-0.09,1.61 -1.34,2.01 -3.74,1.18 -3.37,-1.14 -6.16,-1.71 -8.38,-1.71zm-3.14 40.73c-0.15,0.47 -0.43,1.53 -0.86,3.18 2.79,1.12 3.9,2.57 3.3,4.34 -0.59,1.78 -2.59,2.6 -5.99,2.45l-0.22 1c5.37,0.57 8.44,-0.4 9.19,-2.93 0.75,-2.52 -0.72,-4.19 -4.4,-4.97l0.75 -3.07 -1.77 0zm40.68 -40.84c-4.08,0.01 -7.74,0.96 -10.96,2.85 -3.23,1.88 -5.71,4.37 -7.45,7.49 -1.68,3.07 -2.52,6.52 -2.52,10.35 0,5.55 1.94,10.24 5.83,14.05 3.87,3.84 8.66,5.75 14.37,5.75 3.73,0 7.2,-0.9 10.41,-2.68 3.17,-1.76 5.68,-4.22 7.55,-7.4 1.84,-3.13 2.77,-6.63 2.77,-10.5 0,-6 -1.77,-10.81 -5.27,-14.43 -3.55,-3.66 -8.46,-5.48 -14.73,-5.48zm-0.16 1.5c3.87,0 6.92,1.7 9.17,5.08 2.2,3.33 3.3,7.79 3.3,13.39 0,3.57 -0.6,6.82 -1.77,9.72 -1.2,2.96 -2.79,5.25 -4.76,6.88 -2.03,1.65 -4.18,2.47 -6.45,2.47 -3.48,0 -6.42,-1.77 -8.84,-5.32 -2.46,-3.58 -3.68,-7.94 -3.68,-13.09 0,-3.51 0.53,-6.69 1.6,-9.56 1.09,-2.88 2.62,-5.19 4.6,-6.94 2.01,-1.75 4.28,-2.63 6.83,-2.63z"/>
   </g>
   <rect fill="none" width="1341.55" height="580.49"/>
  </g>
 </g>
</svg>
