<?xml version="1.0" encoding="UTF-8"?>
<!DOCTYPE svg PUBLIC "-//W3C//DTD SVG 1.1//EN" "http://www.w3.org/Graphics/SVG/1.1/DTD/svg11.dtd">
<!-- Creator: CorelDRAW 2018 (64 Bit Versão de avaliação) -->
<svg xmlns="http://www.w3.org/2000/svg" xml:space="preserve" width="1000px" height="433px" version="1.1" shape-rendering="geometricPrecision" text-rendering="geometricPrecision" image-rendering="optimizeQuality" fill-rule="evenodd" clip-rule="evenodd"
viewBox="0 0 1447.43 626.3"
 xmlns:xlink="http://www.w3.org/1999/xlink">
 <g id="Camada_x0020_1">
  <metadata id="CorelCorpID_0Corel-Layer"/>
  <g id="_2774053576192">
   <g>
    <path fill="#020205" fill-rule="nonzero" d="M416.08 553.33c30.83,0 56.75,-9.63 77.87,-28.88 19.85,-18.16 29.56,-42.32 29.22,-72.55l0 -303.8c0,-30.41 14.78,-45.61 44.34,-45.61l0 -9.88 -152.19 0 0 9.88c29.64,0 44.51,15.2 44.51,45.61l0 346.36c0,25.59 -10.22,40.54 -30.66,44.77 -12.25,2.02 -20.78,0.92 -25.76,-3.21 -1.35,-0.93 -5.83,-8.11 -13.6,-21.54 -4.31,-7.43 -8.61,-12.58 -12.84,-15.54 -4.47,-3.13 -9.71,-4.98 -15.62,-5.49 -6.25,0 -11.82,1.86 -16.55,5.49 -4.99,4.14 -7.44,9.29 -7.44,15.54 0,9.46 6.51,17.9 19.51,25.51 15.21,8.95 34.88,13.34 59.21,13.34z"/>
    <path fill="#020205" fill-rule="nonzero" d="M58.95 72.11l0 11.8c35.99,0 54.04,18.04 54.04,54.14l0 298.05c0,37.01 -18.05,55.46 -54.04,55.46l0 10.38 120.79 0 0 -9.77c-35.79,-0.41 -53.64,-19.06 -53.44,-56.07l0 -317.31 172.52 382.55 21.58 0 86.54 -210.73 -11.25 -5.73 -51.39 126.12 -137.64 -310.26c-4.33,-9.78 -6.75,-19.46 -7.15,-28.93l-140.56 0.3z"/>
    <path fill="#020205" fill-rule="nonzero" d="M607.94 192.54l0 6.21c18.96,0 28.46,9.51 28.46,28.52l0 156.97c0,19.49 -9.5,29.21 -28.46,29.21l0 5.47 63.62 0 0 -5.15c-18.85,-0.22 -28.25,-10.04 -28.15,-29.53l0 -167.11 90.86 201.47 11.36 0 82.74 -201.47 0 167.11c0,18.96 -9.56,28.52 -28.78,28.62l0 6.06 96.32 0 0 -6.06c-19.01,0 -28.46,-9.55 -28.46,-28.62l0 -156.97c0,-19.01 9.45,-28.52 28.46,-28.52l0 -6.21 -64.89 -0.16 -72.8 178.64 -72.48 -163.4c-2.29,-5.15 -3.56,-10.25 -3.77,-15.24l-74.03 0.16zm361.89 65.21c-19.38,0.21 -34.67,4.83 -45.77,13.86 -6.75,5.47 -9.82,11.1 -9.29,16.94 0.58,4.04 2.39,7.17 5.25,9.35 3.45,2.28 6.85,2.97 10.31,2.17 3.18,-0.63 5.94,-2.23 8.23,-4.83 2.49,-2.6 4.62,-6.05 6.37,-10.41 3.4,-8.55 5.68,-13.27 6.85,-14.33 3.61,-3.4 9.66,-5.15 18.05,-5.15 20.61,0 31.07,6.74 31.28,20.23 0.27,17.73 -19.65,33.66 -59.74,47.79 -24.06,8.28 -36.11,23.21 -36.11,44.77 0,13.38 4.41,24.05 13.22,31.91 9.03,7.75 20.24,11.95 33.62,12.43 12,0.1 22.3,-2.23 30.8,-7.01 8.81,-4.94 15.24,-10.73 19.27,-17.26 1.28,15.45 12.38,23.2 33.3,23.2 11.1,0 22.46,-3.87 34.09,-11.68l-2.5 -4.83c-8.28,5.41 -15.4,7.49 -21.34,6.21 -5.15,-1.54 -7.76,-7.11 -7.76,-16.78l0 -78.11c0.11,-13.86 -2.01,-25.07 -6.37,-33.56 -8.28,-16.62 -28.89,-24.91 -61.76,-24.91zm31.28 56.13l0 40.31c0,15.77 -2.87,28.78 -8.6,39.08 -5.47,10.14 -13.38,15.24 -23.79,15.24 -8.5,0.11 -14.98,-3.13 -19.44,-9.66 -4.25,-6.54 -6.53,-14.08 -6.85,-22.57 -0.1,-8.61 1.65,-16.25 5.31,-23 3.61,-6.85 9.3,-12.1 16.94,-15.72 18.48,-9.24 30.59,-17.15 36.43,-23.68zm122.61 168.34c19.39,0 35.69,-6.06 48.97,-18.17 12.47,-11.41 18.58,-26.6 18.37,-45.61l0 -191.01c0,-19.12 9.29,-28.68 27.88,-28.68l0 -6.21 -95.69 0 0 6.21c18.64,0 27.98,9.56 27.98,28.68l0 217.77c0,16.09 -6.42,25.49 -19.27,28.15 -7.7,1.27 -13.07,0.58 -16.2,-2.02 -0.85,-0.58 -3.66,-5.1 -8.55,-13.54 -2.71,-4.67 -5.42,-7.91 -8.07,-9.77 -2.82,-1.97 -6.11,-3.13 -9.83,-3.45 -3.93,0 -7.43,1.16 -10.4,3.45 -3.14,2.6 -4.68,5.84 -4.68,9.77 0,5.95 4.09,11.26 12.27,16.04 9.56,5.62 21.93,8.39 37.22,8.39zm157.56 -59.9c18.9,-0.11 34.25,-7.07 46.04,-20.98 0.53,11.1 2.12,18.11 4.83,20.98l54.91 -9.46 0 -5.47c-14.6,2.5 -21.93,-5.41 -21.93,-23.79l0 -121.49 -59.42 0.15 0 5.26c14.55,0.32 21.77,11.37 21.77,33.14l-0.16 73.76c0.11,9.34 -2.66,17.42 -8.39,24.27 -5.89,6.95 -13.12,10.4 -21.61,10.4 -9.24,0 -16.68,-3.4 -22.41,-10.24 -5.68,-7.07 -8.55,-15.19 -8.55,-24.43l0 -112.31 -58.36 0 0 5.25c14.34,0.32 21.51,11.37 21.51,33.19l0 68.72c0.1,17.15 4.67,30.37 13.8,39.66 9.56,9.24 22.2,13.7 37.97,13.39z"/>
    <path fill="#020205" fill-rule="nonzero" d="M791.22 511.53l0 1.15c3.53,-0.05 5.29,1.72 5.27,5.32l0 29.31c0,3.42 -1.76,5.17 -5.27,5.25l0 1.15 36.42 0 0.72 -12.03 -1.05 -0.09c-0.41,7.33 -5.04,11 -13.91,11 -6.34,0 -9.51,-2.37 -9.51,-7.08l0 -13.84 5.36 0c4.12,0 6.17,2.15 6.17,6.45l1.13 0 0 -14.07 -1.13 0c0,4.22 -2.05,6.33 -6.17,6.33l-5.36 0 0 -17.58 10.58 0c6.3,0 9.65,2.99 10.06,8.96l1.13 -0.17 -0.64 -10.06 -33.8 0zm38.88 0.02l0 1.13c2.47,0 4.45,1.78 5.95,5.32l15.36 35.71 1.95 0 13.54 -35.71c1.32,-3.54 3.44,-5.32 6.34,-5.32l0 -1.13 -10.67 0 0 1.13c3.31,0 4.29,1.78 2.93,5.32l-10.17 26.49 -11.2 -26.49c-1.47,-3.54 -0.32,-5.32 3.43,-5.32l0 -1.13 -17.46 0zm43.44 -0.02l0 1.15c3.53,-0.05 5.29,1.72 5.27,5.32l0 29.31c0,3.42 -1.76,5.17 -5.27,5.25l0 1.15 36.41 0 0.73 -12.03 -1.05 -0.09c-0.41,7.33 -5.04,11 -13.92,11 -6.33,0 -9.51,-2.37 -9.51,-7.08l0 -13.84 5.37 0c4.11,0 6.17,2.15 6.17,6.45l1.13 0 0 -14.07 -1.13 0c0,4.22 -2.06,6.33 -6.17,6.33l-5.37 0 0 -17.58 10.59 0c6.3,0 9.65,2.99 10.06,8.96l1.13 -0.17 -0.64 -10.06 -33.8 0zm38.88 0l0 1.15c3.44,0 5.16,1.78 5.18,5.32l0 29.25c-0.02,3.55 -1.74,5.34 -5.18,5.34l0 1.12 11.83 0 0 -1.07c-3.52,0 -5.27,-1.8 -5.25,-5.39l0 -31.11 27.95 37.57 2.23 0 0 -35.71c0,-3.54 1.75,-5.3 5.22,-5.26l0 -1.21 -11.86 0 0 1.15c3.54,0 5.31,1.78 5.31,5.32l0 22.75c-8.95,-11.89 -15.36,-20.69 -19.22,-26.43 -0.97,-1.21 -1.46,-2.13 -1.46,-2.79l-14.75 0zm44.35 0l-0.63 10.06 1.13 0.12c0.4,-5.96 3.53,-8.94 9.36,-8.94l6.76 0 0 34.54c0,3.49 -1.77,5.25 -5.3,5.25l0 1.15 17.97 0 0 -1.15c-3.54,0 -5.31,-1.76 -5.31,-5.25l0 -34.54 6.76 0c5.84,0 8.96,2.98 9.36,8.94l1.13 -0.06 -0.63 -10.12 -40.6 0zm65.56 -0.73c-4.41,0.02 -8.35,1.04 -11.83,3.08 -3.48,2.03 -6.15,4.72 -8.03,8.09 -1.81,3.3 -2.73,7.02 -2.73,11.16 0,5.99 2.1,11.04 6.3,15.16 4.18,4.14 9.34,6.21 15.51,6.21 4.01,0 7.76,-0.97 11.22,-2.9 3.42,-1.89 6.14,-4.56 8.14,-7.98 1.99,-3.38 2.99,-7.16 2.99,-11.33 0,-6.47 -1.9,-11.67 -5.68,-15.57 -3.83,-3.95 -9.12,-5.92 -15.89,-5.92zm-0.17 1.63c4.17,0 7.46,1.83 9.89,5.48 2.37,3.59 3.56,8.4 3.56,14.44 0,3.86 -0.64,7.36 -1.91,10.49 -1.3,3.19 -3.01,5.67 -5.14,7.42 -2.18,1.78 -4.5,2.67 -6.95,2.67 -3.76,0 -6.93,-1.91 -9.54,-5.74 -2.66,-3.87 -3.97,-8.57 -3.97,-14.12 0,-3.79 0.57,-7.22 1.73,-10.32 1.17,-3.11 2.82,-5.6 4.96,-7.48 2.16,-1.89 4.62,-2.84 7.37,-2.84zm37.86 -1.51c-4.13,0 -7.52,1.14 -10.14,3.42 -2.29,2.14 -3.42,4.85 -3.42,8.09 0.04,4.56 2.99,8.33 8.86,11.3 1.01,0.53 2.54,1.19 4.58,1.98 2.05,0.77 3.8,1.57 5.26,2.38 1.46,0.85 2.52,1.69 3.19,2.52 0.73,1 1.15,2.1 1.27,3.28 0.11,1.48 -0.04,2.77 -0.46,3.85 -0.45,1.27 -1.24,2.32 -2.38,3.13 -1.8,1.3 -4.12,1.88 -6.98,1.77 -3.61,-0.13 -6.57,-1.34 -8.88,-3.63 -1.97,-1.97 -3.39,-4.71 -4.24,-8.23l-1.04 0 0 12.93 1.04 0c0.08,-1.25 0.38,-2.13 0.9,-2.64 0.53,-0.49 1.1,-0.65 1.73,-0.44 0.63,0.19 1.46,0.6 2.51,1.2 2.72,1.55 5.42,2.38 8.08,2.5 4.63,0.23 8.37,-0.98 11.23,-3.63 2.74,-2.57 4.21,-5.69 4.4,-9.37 0.12,-2.65 -0.34,-4.84 -1.38,-6.58 -1.05,-1.64 -2.6,-3.08 -4.65,-4.29 -1.39,-0.81 -3.96,-1.91 -7.73,-3.31 -3.89,-1.4 -6.35,-2.63 -7.37,-3.68 -0.83,-0.81 -1.35,-1.73 -1.56,-2.78 -0.28,-1.24 -0.24,-2.42 0.11,-3.56 0.28,-1.2 0.88,-2.15 1.77,-2.84 1.44,-1.24 3.31,-1.88 5.59,-1.92 3.24,-0.13 5.83,0.99 7.8,3.36 1.51,1.8 2.66,4.36 3.45,7.65l1.07 -0.11 -0.89 -11.74 -1.14 0c-0.04,1.74 -1.4,2 -4.11,0.81 -2.16,-0.94 -4.32,-1.42 -6.47,-1.42zm62.45 0c-3.86,0.1 -7.3,1.29 -10.32,3.56 -1.69,1.28 -2.86,2.85 -3.49,4.74 -0.63,1.87 -0.78,3.65 -0.43,5.33 0.34,1.68 1.02,3.1 2.04,4.25l0.66 0.79c-0.15,0.06 -0.66,0.26 -1.53,0.61 -3.69,1.5 -6.32,3.88 -7.87,7.12 -1.55,3.23 -1.66,6.51 -0.31,9.81 0.64,1.57 1.62,2.89 2.93,3.99 1.32,1.09 2.77,1.84 4.38,2.26 1.6,0.41 3.33,0.67 5.17,0.75 1.85,0.09 3.62,-0.1 5.33,-0.56 3.42,-0.74 6.46,-2.2 9.13,-4.41 1.16,1.16 2.42,2.15 3.77,2.96 1.33,0.79 2.77,1.37 4.33,1.72 1.56,0.36 3.34,0.41 5.35,0.13 1.08,-0.15 2.33,-0.42 3.74,-0.81l-0.09 -1.22c-1.33,-0.28 -2.64,-0.71 -3.93,-1.28 -1.28,-0.58 -2.39,-1.29 -3.31,-2.13 -0.93,-0.85 -1.55,-1.47 -1.84,-1.83 -0.31,-0.37 -0.95,-1.07 -1.96,-2.12 1.16,-0.83 2.2,-1.32 3.13,-1.45 0.81,-0.09 1.49,0.11 2.02,0.64 0.36,0.3 0.62,0.66 0.8,1.07l0.4 0.99c0.15,0.38 0.37,0.69 0.63,0.93 0.43,0.38 0.95,0.57 1.57,0.57 0.54,0 1.06,-0.21 1.54,-0.63 0.58,-0.55 0.82,-1.2 0.72,-1.97 -0.09,-0.79 -0.47,-1.47 -1.13,-2 -0.92,-0.78 -1.96,-1.25 -3.1,-1.43 -1.28,-0.15 -2.52,-0.02 -3.74,0.41 -1.12,0.39 -2.32,1.06 -3.59,2l-14.44 -16.38 0.52 -0.21c3.4,-1.08 6.11,-2.66 8.13,-4.75 2.02,-2.09 2.74,-4.39 2.16,-6.93 -0.31,-1.47 -1.11,-2.6 -2.42,-3.39 -1.31,-0.79 -2.95,-1.17 -4.95,-1.13zm-3.79 2.12l0.49 0c1.41,0.09 2.6,0.61 3.55,1.56 0.96,0.95 1.52,2.22 1.7,3.83 0.06,0.78 -0.04,1.59 -0.28,2.45 -0.23,0.86 -0.79,1.8 -1.64,2.81 -0.85,1.02 -1.96,1.81 -3.33,2.39l-0.93 0.41c-4.79,-5.28 -6.13,-9.14 -4.03,-11.57 1.07,-1.26 2.55,-1.88 4.47,-1.88zm-6.64 17.79l15.16 17.4c-1.7,1.5 -4.28,2.32 -7.74,2.47 -2.41,0.06 -4.66,-0.44 -6.74,-1.48 -2.08,-1.05 -3.6,-2.64 -4.57,-4.79 -0.52,-1.12 -0.81,-2.46 -0.87,-4.03 -0.06,-1.56 0.27,-3.25 0.97,-5.06 0.71,-1.82 1.84,-3.25 3.41,-4.27 0.06,-0.04 0.18,-0.12 0.38,-0.24zm59.02 -19.3l0 1.15c3.54,0.06 5.3,1.83 5.28,5.32l0 29.31c0,3.55 -1.76,5.31 -5.28,5.25l0 1.15 17.97 0 0 -1.02c-3.53,0.12 -5.3,-1.67 -5.3,-5.38l0 -15.64 5.36 0c4.06,0 6.12,2.62 6.18,7.83l1.13 0 0 -16.84 -1.13 0c-0.06,5.15 -2.12,7.72 -6.18,7.72l-5.36 0 0 -17.58 9.31 0c6.3,0 9.65,2.99 10.06,8.96l1.13 -0.17 -0.64 -10.06 -32.53 0zm34.91 0l0 1.15c3.53,-0.05 5.29,1.72 5.27,5.32l0 29.31c0,3.42 -1.76,5.17 -5.27,5.25l0 1.15 36.42 0 0.72 -12.03 -1.05 -0.09c-0.41,7.33 -5.04,11 -13.92,11 -6.33,0 -9.51,-2.37 -9.51,-7.08l0 -13.84 5.37 0c4.11,0 6.17,2.15 6.17,6.45l1.13 0 0 -14.07 -1.13 0c0,4.22 -2.06,6.33 -6.17,6.33l-5.37 0 0 -17.58 10.59 0c6.3,0 9.65,2.99 10.06,8.96l1.13 -0.17 -0.64 -10.06 -33.8 0zm55.87 -0.61c-4.14,0 -7.52,1.14 -10.14,3.42 -2.29,2.14 -3.43,4.85 -3.43,8.09 0.04,4.56 3,8.33 8.87,11.3 1.01,0.53 2.53,1.19 4.58,1.98 2.05,0.77 3.8,1.57 5.26,2.38 1.46,0.85 2.52,1.69 3.18,2.52 0.74,1 1.16,2.1 1.28,3.28 0.11,1.48 -0.04,2.77 -0.46,3.85 -0.45,1.27 -1.24,2.32 -2.38,3.13 -1.8,1.3 -4.13,1.88 -6.99,1.77 -3.6,-0.13 -6.56,-1.34 -8.87,-3.63 -1.97,-1.97 -3.39,-4.71 -4.24,-8.23l-1.04 0 0 12.93 1.04 0c0.08,-1.25 0.38,-2.13 0.9,-2.64 0.53,-0.49 1.1,-0.65 1.72,-0.44 0.64,0.19 1.47,0.6 2.52,1.2 2.72,1.55 5.42,2.38 8.08,2.5 4.62,0.23 8.37,-0.98 11.23,-3.63 2.74,-2.57 4.21,-5.69 4.4,-9.37 0.12,-2.65 -0.35,-4.84 -1.39,-6.58 -1.04,-1.64 -2.59,-3.08 -4.64,-4.29 -1.39,-0.81 -3.97,-1.91 -7.74,-3.31 -3.89,-1.4 -6.34,-2.63 -7.36,-3.68 -0.83,-0.81 -1.36,-1.73 -1.56,-2.78 -0.28,-1.24 -0.24,-2.42 0.11,-3.56 0.28,-1.2 0.88,-2.15 1.77,-2.84 1.44,-1.24 3.31,-1.88 5.59,-1.92 3.23,-0.13 5.83,0.99 7.8,3.36 1.51,1.8 2.66,4.36 3.45,7.65l1.07 -0.11 -0.89 -11.74 -1.14 0c-0.04,1.74 -1.4,2 -4.12,0.81 -2.15,-0.94 -4.31,-1.42 -6.46,-1.42zm18.06 0.61l-0.63 10.06 1.13 0.12c0.4,-5.96 3.53,-8.94 9.36,-8.94l6.76 0 0 34.54c0,3.49 -1.77,5.25 -5.31,5.25l0 1.15 17.98 0 0 -1.15c-3.54,0 -5.31,-1.76 -5.31,-5.25l0 -34.54 6.76 0c5.84,0 8.96,2.98 9.36,8.94l1.13 -0.06 -0.63 -10.12 -40.6 0zm55.79 0l-13.83 36.35c-1.19,3.1 -3.27,4.62 -6.23,4.56l0 1.27 10.7 0 0 -1.27c-3.29,0 -4.33,-1.52 -3.11,-4.56l3.14 -8.17 14.93 0 3.31 8.17c1.23,3.08 0.2,4.6 -3.08,4.56l0 1.27 17.34 0 0 -1.27c-2.78,-0.08 -4.81,-1.6 -6.09,-4.56l-15.1 -36.35 -1.98 0zm-2.06 9.22c4.26,10.59 6.64,16.51 7.17,17.74l-13.95 0c0.31,-0.79 2.56,-6.71 6.78,-17.74zm39.32 -9.83c-4.14,0 -7.52,1.14 -10.14,3.42 -2.29,2.14 -3.43,4.85 -3.43,8.09 0.04,4.56 3,8.33 8.87,11.3 1.01,0.53 2.53,1.19 4.58,1.98 2.05,0.77 3.8,1.57 5.26,2.38 1.46,0.85 2.52,1.69 3.18,2.52 0.73,1 1.16,2.1 1.28,3.28 0.11,1.48 -0.04,2.77 -0.47,3.85 -0.44,1.27 -1.23,2.32 -2.37,3.13 -1.8,1.3 -4.13,1.88 -6.99,1.77 -3.6,-0.13 -6.56,-1.34 -8.88,-3.63 -1.97,-1.97 -3.38,-4.71 -4.23,-8.23l-1.04 0 0 12.93 1.04 0c0.08,-1.25 0.38,-2.13 0.9,-2.64 0.52,-0.49 1.1,-0.65 1.72,-0.44 0.63,0.19 1.47,0.6 2.52,1.2 2.72,1.55 5.42,2.38 8.08,2.5 4.62,0.23 8.36,-0.98 11.22,-3.63 2.74,-2.57 4.22,-5.69 4.41,-9.37 0.12,-2.65 -0.35,-4.84 -1.39,-6.58 -1.05,-1.64 -2.59,-3.08 -4.64,-4.29 -1.4,-0.81 -3.97,-1.91 -7.74,-3.31 -3.89,-1.4 -6.34,-2.63 -7.36,-3.68 -0.83,-0.81 -1.36,-1.73 -1.57,-2.78 -0.27,-1.24 -0.23,-2.42 0.11,-3.56 0.29,-1.2 0.88,-2.15 1.77,-2.84 1.45,-1.24 3.32,-1.88 5.6,-1.92 3.23,-0.13 5.83,0.99 7.79,3.36 1.52,1.8 2.67,4.36 3.46,7.65l1.07 -0.11 -0.89 -11.74 -1.14 0c-0.04,1.74 -1.41,2 -4.12,0.81 -2.16,-0.94 -4.31,-1.42 -6.46,-1.42z"/>
    <path fill="#020205" fill-rule="nonzero" d="M607.94 114.94l0 1.16c3.53,-0.05 5.3,1.71 5.28,5.32l0 29.31c0,3.41 -1.77,5.17 -5.28,5.24l0 1.16 36.42 0 0.72 -12.03 -1.05 -0.09c-0.4,7.33 -5.03,10.99 -13.91,10.99 -6.33,0 -9.51,-2.36 -9.51,-7.07l0 -13.84 5.36 0c4.12,0 6.18,2.15 6.18,6.45l1.13 0 0 -14.07 -1.13 0c0,4.22 -2.06,6.33 -6.18,6.33l-5.36 0 0 -17.58 10.59 0c6.29,0 9.65,2.99 10.05,8.96l1.13 -0.17 -0.63 -10.07 -33.81 0zm55.88 -0.6c-4.14,0 -7.53,1.14 -10.15,3.41 -2.28,2.15 -3.42,4.85 -3.42,8.1 0.04,4.56 3,8.33 8.87,11.3 1.01,0.53 2.53,1.19 4.58,1.98 2.05,0.77 3.8,1.56 5.25,2.38 1.47,0.85 2.53,1.69 3.19,2.52 0.73,1 1.16,2.1 1.28,3.28 0.11,1.48 -0.04,2.77 -0.47,3.85 -0.44,1.27 -1.24,2.32 -2.37,3.13 -1.8,1.3 -4.13,1.88 -6.99,1.77 -3.6,-0.13 -6.56,-1.34 -8.88,-3.63 -1.97,-1.97 -3.38,-4.71 -4.23,-8.23l-1.04 0 0 12.93 1.04 0c0.07,-1.25 0.37,-2.14 0.9,-2.64 0.52,-0.5 1.1,-0.65 1.72,-0.45 0.63,0.2 1.46,0.61 2.51,1.21 2.72,1.55 5.43,2.38 8.09,2.5 4.62,0.22 8.36,-0.98 11.22,-3.64 2.74,-2.56 4.22,-5.69 4.4,-9.36 0.12,-2.65 -0.34,-4.84 -1.38,-6.58 -1.05,-1.64 -2.59,-3.08 -4.64,-4.29 -1.4,-0.82 -3.97,-1.91 -7.74,-3.31 -3.89,-1.41 -6.34,-2.63 -7.36,-3.68 -0.84,-0.81 -1.36,-1.73 -1.57,-2.78 -0.28,-1.24 -0.24,-2.43 0.11,-3.57 0.29,-1.19 0.88,-2.14 1.77,-2.84 1.45,-1.23 3.32,-1.88 5.59,-1.92 3.24,-0.12 5.83,0.99 7.8,3.37 1.52,1.8 2.66,4.35 3.46,7.65l1.06 -0.11 -0.89 -11.75 -1.13 0c-0.04,1.75 -1.41,2.01 -4.12,0.81 -2.16,-0.94 -4.32,-1.41 -6.46,-1.41zm15.98 0.6l0 1.16c3.49,-0.09 5.24,1.67 5.24,5.32l0 29.25c0.02,3.53 -1.73,5.3 -5.24,5.3l0 1.16 17.89 0 0 -1.16c-3.52,0 -5.27,-1.77 -5.25,-5.3l0 -11.66 10.23 0c3.42,0 6.34,-1.18 8.76,-3.52 2.41,-2.35 3.62,-5.18 3.62,-8.48 0,-3.35 -1.21,-6.19 -3.62,-8.54 -2.42,-2.35 -5.34,-3.53 -8.76,-3.53l-22.87 0zm12.64 1.37l4.87 0c2.79,0 5.14,1.02 7.07,3.05 1.98,2.09 2.96,4.61 2.96,7.59 0,3.02 -0.99,5.56 -2.96,7.64 -1.97,2.08 -4.32,3.11 -7.07,3.11l-4.87 0 0 -21.39zm34.84 -1.37l-13.82 36.36c-1.2,3.1 -3.28,4.62 -6.24,4.56l0 1.27 10.7 0 0 -1.27c-3.29,0 -4.33,-1.52 -3.11,-4.56l3.14 -8.17 14.93 0 3.31 8.17c1.24,3.08 0.21,4.6 -3.08,4.56l0 1.27 17.34 0 0 -1.27c-2.78,-0.08 -4.81,-1.6 -6.09,-4.56l-15.1 -36.36 -1.98 0zm-2.06 9.23c4.26,10.59 6.64,16.5 7.17,17.74l-13.95 0c0.31,-0.79 2.57,-6.71 6.78,-17.74zm49.9 -9.83c-4.5,0 -8.53,1.01 -12.08,3.04 -3.56,2.03 -6.26,4.7 -8.1,8 -1.83,3.35 -2.75,7.04 -2.75,11.08 0,3.89 0.97,7.47 2.9,10.76 1.97,3.34 4.62,5.92 7.95,7.74 3.43,1.88 7.52,2.81 12.26,2.81 7.93,0 13.26,-3.18 16,-9.53l-1.1 -0.33c-2.84,5.53 -7.68,8.29 -14.52,8.29 -10.02,0 -15.03,-6.58 -15.03,-19.74 0,-5.62 1.31,-10.41 3.92,-14.35 2.72,-4.12 6.18,-6.19 10.35,-6.21 7.47,0 12.14,3.82 14.04,11.45l1.16 -0.12 -0.76 -12.32 -1.15 0c-0.1,1.75 -1.45,2.17 -4.04,1.28 -3.63,-1.24 -6.65,-1.85 -9.05,-1.85zm-3.38 43.95c-0.16,0.5 -0.47,1.64 -0.93,3.42 3.02,1.22 4.2,2.79 3.56,4.7 -0.63,1.92 -2.79,2.8 -6.46,2.64l-0.24 1.08c5.8,0.61 9.11,-0.44 9.92,-3.17 0.81,-2.72 -0.78,-4.51 -4.75,-5.36l0.81 -3.31 -1.91 0zm43.89 -44.07c-4.41,0.02 -8.35,1.04 -11.83,3.08 -3.48,2.03 -6.15,4.72 -8.03,8.08 -1.82,3.31 -2.73,7.03 -2.73,11.17 0,5.98 2.1,11.04 6.3,15.16 4.17,4.14 9.34,6.2 15.51,6.2 4.01,0 7.76,-0.97 11.22,-2.9 3.42,-1.89 6.13,-4.55 8.14,-7.97 1.99,-3.38 2.99,-7.16 2.99,-11.33 0,-6.48 -1.9,-11.67 -5.68,-15.57 -3.83,-3.95 -9.12,-5.92 -15.89,-5.92zm-0.17 1.62c4.17,0 7.46,1.83 9.89,5.49 2.37,3.59 3.56,8.4 3.56,14.44 0,3.86 -0.64,7.36 -1.91,10.49 -1.3,3.19 -3.01,5.67 -5.14,7.42 -2.18,1.78 -4.5,2.67 -6.95,2.67 -3.75,0 -6.93,-1.91 -9.54,-5.74 -2.66,-3.87 -3.97,-8.57 -3.97,-14.12 0,-3.79 0.57,-7.23 1.73,-10.32 1.17,-3.11 2.82,-5.61 4.96,-7.49 2.16,-1.89 4.62,-2.84 7.37,-2.84z"/>
   </g>
   <rect fill="none" width="1447.43" height="626.3"/>
  </g>
 </g>
</svg>
