<?xml version="1.0" encoding="UTF-8"?>
<!DOCTYPE svg PUBLIC "-//W3C//DTD SVG 1.1//EN" "http://www.w3.org/Graphics/SVG/1.1/DTD/svg11.dtd">
<!-- Creator: CorelDRAW 2018 (64 Bit Versão de avaliação) -->
<svg xmlns="http://www.w3.org/2000/svg" xml:space="preserve" width="1000px" height="419px" version="1.1" style="shape-rendering:geometricPrecision; text-rendering:geometricPrecision; image-rendering:optimizeQuality; fill-rule:evenodd; clip-rule:evenodd"
viewBox="0 0 1015.1 424.93"
 xmlns:xlink="http://www.w3.org/1999/xlink">
 <defs>
  <style type="text/css">
   <![CDATA[
    .fil1 {fill:none}
    .fil0 {fill:white;fill-rule:nonzero}
   ]]>
  </style>
 </defs>
 <g id="Camada_x0020_1">
  <metadata id="CorelCorpID_0Corel-Layer"/>
  <g id="_3205875502800">
   <g>
    <path class="fil0" d="M293.49 373.14c20.92,0 38.51,-6.54 52.84,-19.6 13.46,-12.32 20.05,-28.71 19.82,-49.22l0 -206.12c0,-20.63 10.03,-30.94 30.09,-30.94l0 -6.71 -103.26 0 0 6.71c20.11,0 30.2,10.31 30.2,30.94l0 235c0,17.36 -6.94,27.5 -20.8,30.37 -8.31,1.37 -14.1,0.63 -17.48,-2.18 -0.92,-0.63 -3.96,-5.5 -9.23,-14.61 -2.92,-5.05 -5.84,-8.54 -8.71,-10.55 -3.03,-2.12 -6.59,-3.38 -10.6,-3.72 -4.24,0 -8.02,1.26 -11.23,3.72 -3.38,2.81 -5.04,6.31 -5.04,10.55 0,6.41 4.41,12.15 13.23,17.3 10.32,6.08 23.67,9.06 40.17,9.06z"/>
    <path class="fil0" d="M51.19 46.64l0 8.01c24.42,0 36.67,12.24 36.67,36.73l0 202.22c0,25.11 -12.25,37.63 -36.67,37.63l0 7.04 81.96 0 0 -6.63c-24.29,-0.28 -36.4,-12.93 -36.26,-38.04l0 -215.28 117.05 259.54 14.64 0 58.71 -142.97 -7.63 -3.89 -34.87 85.57 -93.38 -210.5c-2.94,-6.64 -4.58,-13.2 -4.85,-19.63l-95.37 0.2z"/>
    <path class="fil0" d="M423.67 128.35l0 4.22c12.86,0 19.31,6.45 19.31,19.34l0 106.5c0,13.23 -6.45,19.82 -19.31,19.82l0 3.71 43.16 0 0 -3.49c-12.79,-0.15 -19.17,-6.81 -19.1,-20.04l0 -113.38 61.65 136.69 7.71 0 56.13 -136.69 0 113.38c0,12.87 -6.49,19.35 -19.53,19.42l0 4.11 65.36 0 0 -4.11c-12.9,0 -19.31,-6.48 -19.31,-19.42l0 -106.5c0,-12.89 6.41,-19.34 19.31,-19.34l0 -4.22 -44.03 -0.11 -49.39 121.2 -49.18 -110.86c-1.55,-3.49 -2.42,-6.95 -2.56,-10.34l-50.22 0.11zm245.53 44.24c-13.15,0.15 -23.53,3.28 -31.06,9.41 -4.57,3.71 -6.66,7.53 -6.3,11.49 0.39,2.74 1.62,4.87 3.57,6.34 2.34,1.55 4.64,2.02 6.98,1.48 2.17,-0.43 4.04,-1.51 5.59,-3.28 1.69,-1.76 3.13,-4.11 4.32,-7.06 2.31,-5.8 3.86,-9.01 4.65,-9.73 2.45,-2.3 6.56,-3.49 12.25,-3.49 13.98,0 21.08,4.57 21.22,13.72 0.18,12.04 -13.33,22.85 -40.53,32.43 -16.32,5.62 -24.5,15.74 -24.5,30.37 0,9.08 2.99,16.32 8.97,21.65 6.12,5.26 13.73,8.11 22.81,8.43 8.14,0.08 15.13,-1.51 20.89,-4.75 5.98,-3.35 10.34,-7.28 13.08,-11.71 0.87,10.48 8.4,15.74 22.59,15.74 7.53,0 15.24,-2.63 23.13,-7.92l-1.69 -3.28c-5.62,3.67 -10.45,5.08 -14.49,4.22 -3.49,-1.05 -5.26,-4.83 -5.26,-11.39l0 -53c0.08,-9.4 -1.36,-17 -4.32,-22.77 -5.62,-11.27 -19.6,-16.9 -41.9,-16.9zm21.22 38.09l0 27.34c0,10.7 -1.95,19.53 -5.84,26.52 -3.71,6.88 -9.08,10.34 -16.14,10.34 -5.76,0.07 -10.16,-2.13 -13.18,-6.56 -2.89,-4.43 -4.43,-9.55 -4.65,-15.31 -0.07,-5.84 1.12,-11.02 3.6,-15.6 2.45,-4.65 6.31,-8.21 11.49,-10.66 12.54,-6.27 20.76,-11.64 24.72,-16.07zm83.19 114.21c13.15,0 24.21,-4.11 33.22,-12.32 8.47,-7.75 12.61,-18.05 12.46,-30.95l0 -129.6c0,-12.97 6.31,-19.45 18.92,-19.45l0 -4.22 -64.92 0 0 4.22c12.64,0 18.98,6.48 18.98,19.45l0 147.76c0,10.91 -4.36,17.29 -13.08,19.09 -5.22,0.86 -8.86,0.4 -10.98,-1.37 -0.58,-0.4 -2.49,-3.46 -5.8,-9.19 -1.84,-3.17 -3.68,-5.36 -5.48,-6.63 -1.91,-1.33 -4.14,-2.12 -6.67,-2.34 -2.66,0 -5.04,0.8 -7.06,2.34 -2.12,1.77 -3.17,3.97 -3.17,6.63 0,4.04 2.78,7.64 8.32,10.88 6.49,3.82 14.88,5.7 25.26,5.7zm106.9 -40.64c12.82,-0.08 23.24,-4.79 31.23,-14.23 0.36,7.53 1.44,12.28 3.28,14.23l37.26 -6.42 0 -3.71c-9.91,1.7 -14.88,-3.67 -14.88,-16.14l0 -82.43 -40.32 0.11 0 3.56c9.87,0.22 14.77,7.71 14.77,22.49l-0.11 50.04c0.08,6.34 -1.8,11.82 -5.69,16.46 -4,4.72 -8.9,7.07 -14.66,7.07 -6.27,0 -11.32,-2.31 -15.21,-6.96 -3.85,-4.79 -5.8,-10.3 -5.8,-16.57l0 -76.2 -39.59 0 0 3.57c9.72,0.21 14.59,7.71 14.59,22.51l0 46.62c0.07,11.64 3.17,20.61 9.37,26.92 6.48,6.27 15.06,9.29 25.76,9.08z"/>
    <path class="fil0" d="M423.67 75.7l0 0.79c2.39,-0.03 3.59,1.16 3.58,3.61l0 19.88c0,2.32 -1.2,3.51 -3.58,3.56l0 0.79 24.71 0 0.49 -8.17 -0.72 -0.06c-0.27,4.98 -3.41,7.46 -9.44,7.46 -4.29,0 -6.45,-1.6 -6.45,-4.8l0 -9.39 3.64 0c2.79,0 4.19,1.46 4.19,4.38l0.77 0 0 -9.55 -0.77 0c0,2.86 -1.4,4.29 -4.19,4.29l-3.64 0 0 -11.92 7.19 0c4.27,0 6.54,2.03 6.82,6.08l0.76 -0.12 -0.43 -6.83 -22.93 0zm37.91 -0.41c-2.81,0 -5.11,0.78 -6.89,2.32 -1.55,1.46 -2.32,3.29 -2.32,5.49 0.03,3.1 2.04,5.66 6.02,7.67 0.68,0.36 1.72,0.81 3.11,1.34 1.39,0.53 2.57,1.07 3.56,1.62 1,0.57 1.71,1.14 2.16,1.71 0.5,0.68 0.79,1.42 0.87,2.22 0.07,1.01 -0.03,1.88 -0.32,2.61 -0.3,0.87 -0.84,1.58 -1.61,2.13 -1.22,0.88 -2.8,1.28 -4.74,1.2 -2.44,-0.09 -4.45,-0.91 -6.02,-2.46 -1.34,-1.34 -2.3,-3.2 -2.87,-5.59l-0.71 0 0 8.78 0.71 0c0.05,-0.85 0.25,-1.45 0.61,-1.8 0.35,-0.33 0.74,-0.44 1.16,-0.3 0.43,0.14 1,0.41 1.71,0.82 1.85,1.05 3.68,1.61 5.49,1.69 3.13,0.16 5.67,-0.66 7.61,-2.46 1.86,-1.74 2.86,-3.86 2.99,-6.35 0.08,-1.8 -0.24,-3.29 -0.94,-4.47 -0.71,-1.11 -1.76,-2.09 -3.15,-2.91 -0.95,-0.55 -2.69,-1.3 -5.25,-2.24 -2.64,-0.96 -4.31,-1.79 -5,-2.5 -0.56,-0.55 -0.92,-1.18 -1.06,-1.89 -0.19,-0.84 -0.16,-1.64 0.08,-2.42 0.19,-0.81 0.59,-1.45 1.2,-1.92 0.98,-0.84 2.25,-1.28 3.79,-1.31 2.2,-0.08 3.96,0.68 5.29,2.29 1.03,1.22 1.81,2.95 2.35,5.19l0.72 -0.08 -0.6 -7.97 -0.78 0c-0.02,1.19 -0.95,1.37 -2.79,0.55 -1.46,-0.63 -2.93,-0.96 -4.38,-0.96zm10.84 0.41l0 0.79c2.37,-0.06 3.56,1.13 3.56,3.61l0 19.84c0.01,2.4 -1.18,3.6 -3.56,3.6l0 0.79 12.14 0 0 -0.79c-2.39,0 -3.58,-1.2 -3.57,-3.6l0 -7.91 6.95 0c2.32,0 4.3,-0.8 5.94,-2.39 1.64,-1.59 2.46,-3.51 2.46,-5.75 0,-2.27 -0.82,-4.2 -2.46,-5.8 -1.64,-1.59 -3.62,-2.39 -5.94,-2.39l-15.52 0zm8.57 0.93l3.31 0c1.89,0 3.49,0.69 4.8,2.07 1.34,1.42 2.01,3.13 2.01,5.15 0,2.05 -0.68,3.77 -2.01,5.18 -1.34,1.41 -2.94,2.12 -4.8,2.12l-3.31 0 0 -14.52zm23.65 -0.93l-9.38 24.67c-0.82,2.1 -2.23,3.13 -4.23,3.09l0 0.87 7.25 0 0 -0.87c-2.23,0 -2.93,-1.03 -2.1,-3.09l2.12 -5.54 10.14 0 2.24 5.54c0.84,2.09 0.14,3.12 -2.09,3.09l0 0.87 11.76 0 0 -0.87c-1.88,-0.05 -3.26,-1.08 -4.12,-3.09l-10.25 -24.67 -1.34 0zm-1.4 6.26c2.89,7.19 4.51,11.2 4.86,12.04l-9.46 0c0.21,-0.54 1.74,-4.55 4.6,-12.04zm33.85 -6.67c-3.05,0 -5.78,0.69 -8.19,2.07 -2.42,1.37 -4.25,3.18 -5.5,5.43 -1.24,2.27 -1.86,4.77 -1.86,7.51 0,2.64 0.65,5.07 1.96,7.3 1.34,2.27 3.14,4.02 5.4,5.25 2.33,1.28 5.1,1.91 8.31,1.91 5.38,0 9,-2.16 10.86,-6.47l-0.74 -0.22c-1.93,3.75 -5.22,5.63 -9.86,5.63 -6.8,0 -10.19,-4.47 -10.19,-13.4 0,-3.81 0.88,-7.06 2.66,-9.74 1.84,-2.79 4.19,-4.19 7.02,-4.21 5.06,0 8.23,2.6 9.52,7.77l0.79 -0.08 -0.51 -8.36 -0.79 0c-0.07,1.19 -0.98,1.47 -2.74,0.87 -2.46,-0.84 -4.51,-1.26 -6.14,-1.26zm-2.29 29.82c-0.11,0.35 -0.32,1.12 -0.63,2.33 2.04,0.82 2.85,1.88 2.41,3.18 -0.43,1.3 -1.89,1.9 -4.38,1.79l-0.16 0.73c3.93,0.42 6.18,-0.29 6.73,-2.14 0.55,-1.85 -0.53,-3.07 -3.23,-3.64l0.55 -2.25 -1.29 0zm29.78 -29.9c-2.99,0.02 -5.67,0.71 -8.03,2.09 -2.36,1.38 -4.17,3.2 -5.45,5.49 -1.23,2.24 -1.85,4.77 -1.85,7.57 0,4.06 1.43,7.5 4.27,10.29 2.84,2.8 6.34,4.21 10.53,4.21 2.72,0 5.26,-0.66 7.61,-1.97 2.32,-1.28 4.16,-3.09 5.53,-5.41 1.35,-2.29 2.02,-4.86 2.02,-7.69 0,-4.39 -1.29,-7.92 -3.85,-10.56 -2.6,-2.68 -6.19,-4.02 -10.78,-4.02zm-0.12 1.11c2.83,0 5.07,1.24 6.71,3.71 1.61,2.44 2.42,5.71 2.42,9.8 0,2.62 -0.44,5 -1.3,7.12 -0.88,2.17 -2.04,3.85 -3.48,5.03 -1.49,1.21 -3.06,1.82 -4.72,1.82 -2.55,0 -4.7,-1.3 -6.48,-3.9 -1.8,-2.62 -2.69,-5.81 -2.69,-9.58 0,-2.57 0.39,-4.9 1.18,-7 0.79,-2.11 1.91,-3.8 3.36,-5.08 1.47,-1.28 3.14,-1.92 5,-1.92z"/>
   </g>
   <rect class="fil1" width="1015.1" height="424.93"/>
  </g>
 </g>
</svg>
