<?xml version="1.0" encoding="UTF-8"?>
<!DOCTYPE svg PUBLIC "-//W3C//DTD SVG 1.1//EN" "http://www.w3.org/Graphics/SVG/1.1/DTD/svg11.dtd">
<!-- Creator: CorelDRAW 2018 (64 Bit Versão de avaliação) -->
<svg xmlns="http://www.w3.org/2000/svg" xml:space="preserve" width="500px" height="362px" version="1.1" style="shape-rendering:geometricPrecision; text-rendering:geometricPrecision; image-rendering:optimizeQuality; fill-rule:evenodd; clip-rule:evenodd"
viewBox="0 0 1035.41 748.23"
 xmlns:xlink="http://www.w3.org/1999/xlink">
 <defs>
  <style type="text/css">
   <![CDATA[
    .fil0 {fill:#18181B;fill-rule:nonzero}
    .fil1 {fill:white;fill-rule:nonzero}
   ]]>
  </style>
 </defs>
 <g id="Camada_x0020_1">
  <metadata id="CorelCorpID_0Corel-Layer"/>
  <g id="_1917949733744">
   <path class="fil0" d="M545.76 748.23c47.11,0 86.74,-14.71 119,-44.14 30.34,-27.75 45.18,-64.66 44.66,-110.87l0 -464.26c0,-46.47 22.59,-69.7 67.76,-69.7l0 -15.1 -232.58 0 0 15.1c45.3,0 68.02,23.23 68.02,69.7l0 529.31c0,39.11 -15.61,61.95 -46.85,68.41 -18.72,3.1 -31.75,1.42 -39.37,-4.91 -2.06,-1.42 -8.9,-12.39 -20.78,-32.91 -6.58,-11.36 -13.16,-19.23 -19.62,-23.75 -6.84,-4.78 -14.84,-7.61 -23.88,-8.39 -9.55,0 -18.06,2.84 -25.29,8.39 -7.61,6.32 -11.36,14.2 -11.36,23.75 0,14.46 9.94,27.36 29.81,38.98 23.24,13.68 53.31,20.39 90.48,20.39zm-545.76 -735.4l0 18.03c55.01,0 82.59,27.58 82.59,82.74l0 455.48c0,56.55 -27.58,84.75 -82.59,84.75l0 15.88 184.6 0 0 -14.95c-54.7,-0.62 -81.98,-29.13 -81.67,-85.68l0 -484.91 263.64 584.61 32.98 0 132.24 -322.04 -17.18 -8.75 -78.54 192.73 -210.33 -474.13c-6.63,-14.95 -10.33,-29.74 -10.94,-44.22l-214.8 0.46z"/>
   <g>
    <path class="fil1" d="M1022.78 205.57c-6.98,0 -12.64,5.66 -12.64,12.63l0 45.02c0,25.84 -21.02,46.86 -46.85,46.86l-72.02 0c-3.35,0 -6.56,1.33 -8.93,3.69l-87.3 87.31 0 -78.37c0,-6.97 -5.65,-12.63 -12.63,-12.63l-180.87 0c-25.84,0 -46.86,-21.02 -46.86,-46.86l0 -191.1c0,-25.84 21.02,-46.85 46.86,-46.85l361.75 0c25.83,0 46.85,21.01 46.85,46.85l0 45.02c0,6.98 5.66,12.63 12.64,12.63 6.97,0 12.63,-5.65 12.63,-12.63l0 -45.02c0,-39.77 -32.35,-72.12 -72.12,-72.12l-361.75 0c-39.77,0 -72.13,32.35 -72.13,72.12l0 162.3 -91.95 0c-26.94,0 -48.87,21.92 -48.87,48.87l0 116.41c0,26.96 21.93,48.88 48.87,48.88l38.64 0 62.61 62.61c2.42,2.42 5.65,3.7 8.94,3.7 1.63,0 3.28,-0.31 4.83,-0.96 4.72,-1.95 7.8,-6.56 7.8,-11.67l0 -53.68 97.56 0c26.94,0 48.87,-21.92 48.87,-48.88l0 -64.35 63.06 0 0 96.22c0,5.12 3.09,9.72 7.81,11.67 1.56,0.65 3.2,0.97 4.83,0.97 3.29,0 6.52,-1.29 8.93,-3.71l105.17 -105.15 66.78 0c39.77,0 72.12,-32.36 72.12,-72.13l0 -45.02c0,-6.97 -5.66,-12.63 -12.63,-12.63zm-341.34 194.13c0,13.03 -10.59,23.61 -23.6,23.61l-110.19 0c-6.98,0 -12.63,5.66 -12.63,12.63l0 35.82 -44.75 -44.75c-2.37,-2.37 -5.59,-3.7 -8.94,-3.7l-43.87 0c-13.01,0 -23.61,-10.58 -23.61,-23.61l0 -116.41c0,-13.02 10.6,-23.6 23.61,-23.6l91.95 0 0 3.53c0,39.77 32.36,72.13 72.13,72.13l79.9 0 0 64.35z"/>
    <path class="fil1" d="M905.58 82.78l-246.34 0c-6.98,0 -12.64,5.66 -12.64,12.64 0,6.98 5.66,12.63 12.64,12.63l246.34 0c6.98,0 12.64,-5.65 12.64,-12.63 0,-6.98 -5.66,-12.64 -12.64,-12.64z"/>
    <path class="fil1" d="M918.22 163.64c0,-6.97 -5.66,-12.63 -12.64,-12.63l-246.34 0c-6.98,0 -12.64,5.66 -12.64,12.63 0,6.98 5.66,12.64 12.64,12.64l246.34 0c6.98,0 12.64,-5.66 12.64,-12.64z"/>
    <path class="fil1" d="M659.24 219.23c-6.98,0 -12.64,5.66 -12.64,12.63 0,6.98 5.66,12.63 12.64,12.63l142.12 0c6.97,0 12.63,-5.65 12.63,-12.63 0,-6.97 -5.66,-12.63 -12.63,-12.63l-142.12 0z"/>
    <path class="fil1" d="M1022.78 155.04c-6.96,0 -12.64,5.67 -12.64,12.63 0,6.96 5.68,12.63 12.64,12.63 6.95,0 12.63,-5.67 12.63,-12.63 0,-6.96 -5.68,-12.63 -12.63,-12.63z"/>
   </g>
  </g>
 </g>
</svg>
